<mxfile host="65bd71144e">
    <diagram id="v-NQN9mxzmzm0O5ND7X4" name="Page-1">
        <mxGraphModel dx="1232" dy="650" grid="1" gridSize="10" guides="1" tooltips="1" connect="1" arrows="1" fold="1" page="0" pageScale="1" pageWidth="827" pageHeight="1169" math="0" shadow="0">
            <root>
                <mxCell id="0"/>
                <mxCell id="1" parent="0"/>
                <mxCell id="3" value="&lt;h1&gt;Figure 8.1 Socket Functions for UDP Client/Server&lt;/h1&gt;&lt;p&gt;.&lt;/p&gt;" style="text;html=1;strokeColor=none;fillColor=none;spacing=5;spacingTop=-20;whiteSpace=wrap;overflow=hidden;rounded=0;" vertex="1" parent="1">
                    <mxGeometry x="100" y="100" width="410" height="120" as="geometry"/>
                </mxCell>
                <mxCell id="4" value=":UDP client" style="shape=umlLifeline;perimeter=lifelinePerimeter;whiteSpace=wrap;html=1;container=1;collapsible=0;recursiveResize=0;outlineConnect=0;" vertex="1" parent="1">
                    <mxGeometry x="230" y="320" width="100" height="600" as="geometry"/>
                </mxCell>
                <mxCell id="5" value=":UDP server" style="shape=umlLifeline;perimeter=lifelinePerimeter;whiteSpace=wrap;html=1;container=1;collapsible=0;recursiveResize=0;outlineConnect=0;" vertex="1" parent="1">
                    <mxGeometry x="710" y="320" width="100" height="600" as="geometry"/>
                </mxCell>
                <mxCell id="6" value="socket()" style="html=1;" vertex="1" parent="1">
                    <mxGeometry x="220" y="590" width="120" height="40" as="geometry"/>
                </mxCell>
                <mxCell id="7" value="bind()" style="html=1;" vertex="1" parent="1">
                    <mxGeometry x="700" y="480" width="120" height="40" as="geometry"/>
                </mxCell>
                <mxCell id="8" value="recvfrom()" style="html=1;" vertex="1" parent="1">
                    <mxGeometry x="700" y="560" width="120" height="40" as="geometry"/>
                </mxCell>
                <mxCell id="16" style="edgeStyle=orthogonalEdgeStyle;rounded=0;orthogonalLoop=1;jettySize=auto;html=1;" edge="1" parent="1" source="9">
                    <mxGeometry relative="1" as="geometry">
                        <mxPoint x="759.5" y="683" as="targetPoint"/>
                        <Array as="points">
                            <mxPoint x="630" y="683"/>
                            <mxPoint x="630" y="683"/>
                        </Array>
                    </mxGeometry>
                </mxCell>
                <mxCell id="18" value="data(request)" style="edgeLabel;html=1;align=center;verticalAlign=middle;resizable=0;points=[];" vertex="1" connectable="0" parent="16">
                    <mxGeometry x="-0.1037" y="-1" relative="1" as="geometry">
                        <mxPoint as="offset"/>
                    </mxGeometry>
                </mxCell>
                <mxCell id="9" value="sendto()" style="html=1;" vertex="1" parent="1">
                    <mxGeometry x="220" y="663" width="120" height="40" as="geometry"/>
                </mxCell>
                <mxCell id="10" value="socket()" style="html=1;" vertex="1" parent="1">
                    <mxGeometry x="700" y="400" width="120" height="40" as="geometry"/>
                </mxCell>
                <mxCell id="11" value="well-known port" style="text;html=1;align=center;verticalAlign=middle;resizable=0;points=[];autosize=1;strokeColor=none;" vertex="1" parent="1">
                    <mxGeometry x="590" y="480" width="100" height="20" as="geometry"/>
                </mxCell>
                <mxCell id="13" style="edgeStyle=orthogonalEdgeStyle;rounded=0;orthogonalLoop=1;jettySize=auto;html=1;entryX=1;entryY=0.5;entryDx=0;entryDy=0;" edge="1" parent="1" source="12" target="8">
                    <mxGeometry relative="1" as="geometry">
                        <Array as="points">
                            <mxPoint x="880" y="860"/>
                            <mxPoint x="880" y="580"/>
                        </Array>
                    </mxGeometry>
                </mxCell>
                <mxCell id="20" value="data(reply)" style="edgeStyle=orthogonalEdgeStyle;rounded=0;orthogonalLoop=1;jettySize=auto;html=1;" edge="1" parent="1" source="12" target="19">
                    <mxGeometry relative="1" as="geometry"/>
                </mxCell>
                <mxCell id="12" value="sendto()" style="html=1;" vertex="1" parent="1">
                    <mxGeometry x="700" y="840" width="120" height="40" as="geometry"/>
                </mxCell>
                <mxCell id="14" value="blocks until datagram&lt;br&gt;received from client" style="text;html=1;align=center;verticalAlign=middle;resizable=0;points=[];autosize=1;strokeColor=none;" vertex="1" parent="1">
                    <mxGeometry x="695" y="620" width="130" height="30" as="geometry"/>
                </mxCell>
                <mxCell id="15" value="process request" style="text;html=1;align=center;verticalAlign=middle;resizable=0;points=[];autosize=1;strokeColor=none;" vertex="1" parent="1">
                    <mxGeometry x="710" y="760" width="100" height="20" as="geometry"/>
                </mxCell>
                <mxCell id="19" value="recvfrom()" style="html=1;" vertex="1" parent="1">
                    <mxGeometry x="220" y="840" width="120" height="40" as="geometry"/>
                </mxCell>
            </root>
        </mxGraphModel>
    </diagram>
</mxfile>